<?xml version="1.0" standalone="no"?>
<!DOCTYPE svg PUBLIC "-//W3C//DTD SVG 20010904//EN"
 "http://www.w3.org/TR/2001/REC-SVG-20010904/DTD/svg10.dtd">
<svg version="1.0" xmlns="http://www.w3.org/2000/svg"
 width="1024.000000pt" height="720.000000pt" viewBox="0 0 1024.000000 720.000000"
 preserveAspectRatio="xMidYMid meet">

<g transform="translate(0.000000,720.000000) scale(0.100000,-0.100000)"
fill="#000000" stroke="none">
<path d="M2694 6235 c-9 -23 5 -35 39 -35 50 0 173 -44 228 -81 27 -19 49 -37
49 -41 0 -5 6 -8 14 -8 8 0 26 -14 40 -31 l26 -31 0 -1086 c0 -1097 -5 -1279
-37 -1382 -41 -133 -135 -214 -265 -226 -71 -8 -99 -19 -93 -37 7 -17 863 -18
869 0 8 20 -16 30 -81 36 -154 13 -258 117 -289 291 -16 90 -20 2281 -4 2291
12 8 38 -21 255 -285 97 -118 267 -325 378 -459 472 -570 609 -737 625 -756
112 -136 167 -194 185 -195 4 0 44 -23 89 -51 119 -75 144 -88 155 -81 12 9
93 142 93 155 0 7 -212 277 -247 315 -7 7 -48 57 -90 110 -43 53 -80 99 -83
102 -3 3 -25 30 -50 60 -25 30 -52 64 -62 75 -103 126 -418 514 -433 534 -11
14 -46 58 -78 96 -74 88 -80 95 -147 180 -30 39 -61 77 -69 85 -30 30 -214
265 -267 339 -100 140 -88 134 -241 121 -104 -10 -287 -7 -451 6 -39 3 -54 0
-58 -11z"/>
<path d="M5024 6236 c-9 -25 5 -36 45 -36 56 0 154 -37 197 -74 22 -19 51 -58
66 -87 56 -109 58 -135 58 -736 l0 -552 37 -26 c21 -14 43 -25 50 -25 9 0 13
142 15 598 4 536 6 602 22 650 34 104 81 169 150 204 56 29 125 48 174 48 38
0 42 2 42 26 l0 26 -67 -8 c-86 -10 -672 -10 -736 0 -38 6 -48 4 -53 -8z"/>
<path d="M6388 5543 c-16 -19 -138 -192 -177 -251 -13 -21 -28 -38 -33 -40 -4
-2 -8 -10 -8 -18 0 -8 -4 -14 -8 -14 -4 0 -15 -13 -25 -29 -9 -16 -69 -102
-132 -190 -63 -89 -115 -166 -115 -171 0 -4 -4 -10 -8 -12 -5 -1 -35 -41 -67
-88 -32 -47 -62 -86 -67 -88 -4 -2 -8 -8 -8 -13 0 -5 -44 -71 -98 -147 -101
-141 -229 -322 -247 -349 -5 -9 -67 -97 -138 -197 -70 -99 -143 -203 -162
-231 -174 -249 -292 -416 -316 -446 -16 -20 -29 -42 -29 -48 0 -6 -4 -11 -10
-11 -5 0 -10 -6 -10 -14 0 -8 -4 -16 -8 -18 -8 -3 -208 -286 -375 -528 -43
-63 -83 -116 -88 -118 -5 -2 -9 -8 -9 -12 0 -8 -188 -278 -388 -557 -7 -10
-89 -128 -183 -263 -94 -135 -193 -275 -220 -312 -27 -37 -49 -72 -49 -76 0
-16 39 -45 53 -39 7 3 39 42 71 88 31 46 86 125 121 174 35 50 100 142 144
205 153 221 183 264 260 369 42 58 98 138 124 176 26 39 61 88 77 110 16 22
83 117 149 212 158 226 164 235 179 251 6 7 16 22 22 31 8 16 174 256 288 416
24 33 92 130 152 215 60 85 134 191 165 235 31 44 100 143 154 220 96 139 145
208 179 254 22 30 87 124 158 226 30 44 120 172 199 285 79 113 197 279 260
370 64 91 157 223 206 293 87 124 90 129 73 148 -21 24 -37 24 -56 2z"/>
<path d="M6059 3889 c19 -11 66 -27 105 -35 101 -21 130 -31 225 -77 169 -83
306 -258 364 -466 18 -65 21 -104 21 -266 0 -163 -3 -202 -21 -270 -24 -89
-54 -165 -65 -165 -5 0 -8 -6 -8 -13 0 -15 -68 -108 -118 -160 -20 -21 -76
-63 -123 -92 -143 -89 -270 -121 -447 -112 -59 3 -116 7 -127 9 -14 2 -21 -3
-23 -18 -5 -34 74 -47 258 -41 191 6 243 15 390 63 43 15 190 84 200 94 3 3
29 21 57 39 66 41 193 175 248 261 84 131 125 289 125 481 0 232 -53 390 -178
530 -28 32 -110 95 -149 116 -12 6 -35 18 -50 26 -148 79 -331 117 -568 117
l-150 0 34 -21z"/>
<path d="M5340 2142 c0 -633 -4 -958 -11 -998 -22 -121 -82 -159 -276 -176
-109 -10 -123 -14 -123 -30 0 -19 6 -20 115 -18 33 1 312 2 620 3 490 2 560 4
560 17 0 12 -15 16 -65 17 -376 14 -476 61 -510 242 -6 34 -10 364 -10 882 l0
829 -70 45 c-39 25 -75 45 -80 45 -6 0 -10 5 -10 10 0 6 -4 10 -10 10 -5 0
-32 14 -58 30 -27 17 -54 30 -61 30 -8 0 -11 -243 -11 -938z"/>
</g>
</svg>
