<?xml version="1.0" encoding="UTF-8"?>
<svg version="1.1" xmlns="http://www.w3.org/2000/svg" width="1444" height="596">
<path d="M0 0 C476.52 0 953.04 0 1444 0 C1444 196.68 1444 393.36 1444 596 C967.48 596 490.96 596 0 596 C0 399.32 0 202.64 0 0 Z " fill="#FEFEFE" transform="translate(0,0)"/>
<path d="M0 0 C8.77970525 -0.06956294 17.55931538 -0.1228431 26.33923626 -0.15543652 C30.41627944 -0.1710811 34.49313383 -0.19229708 38.57006836 -0.22631836 C42.50581018 -0.25895524 46.4413706 -0.2768621 50.37723732 -0.28463173 C51.87752957 -0.2901675 53.37781209 -0.30097761 54.87802696 -0.31719017 C56.98229672 -0.33902272 59.08582044 -0.3419646 61.19018555 -0.34057617 C62.98555 -0.35056892 62.98555 -0.35056892 64.81718445 -0.36076355 C68.33855469 0.03837426 70.17694014 0.89778074 73 3 C74.88671875 5.4609375 74.88671875 5.4609375 76.6875 8.375 C83.00264384 18.20249913 90.23921951 27.20146392 97.83007812 36.06323242 C101.09172562 39.88426387 104.22894639 43.78422465 107.3125 47.75 C113.20513403 55.3248705 119.31474272 62.71435326 125.43408203 70.10644531 C131.73898941 77.73052726 137.9673424 85.41749652 144.20336914 93.09790039 C147.29491428 96.90465036 150.39212113 100.70655962 153.5 104.5 C157.74954171 109.68694061 161.97655773 114.89199885 166.203125 120.09765625 C169.29479333 123.90445347 172.39204863 127.70647112 175.5 131.5 C179.74954171 136.68694061 183.97655773 141.89199885 188.203125 147.09765625 C191.29479333 150.90445347 194.39204863 154.70647112 197.5 158.5 C203.92765227 166.34689665 210.3135849 174.22777362 216.70703125 182.10253906 C218.38785682 184.17265929 220.06888349 186.24261603 221.75 188.3125 C222.28898926 188.97628662 222.82797852 189.64007324 223.38330078 190.32397461 C227.30476088 195.15098794 231.24330989 199.963569 235.1953125 204.765625 C235.79085937 205.50296875 236.38640625 206.2403125 237 207 C237.61617187 207.65484375 238.23234375 208.3096875 238.8671875 208.984375 C240 211 240 211 239.4453125 213.29296875 C237.64350833 216.66769926 235.80157055 220.00737632 233.875 223.3125 C233.50246094 223.95767578 233.12992188 224.60285156 232.74609375 225.26757812 C231.83367787 226.84675945 230.91724491 228.42361864 230 230 C223.78215034 228.85027035 218.32983604 224.85301004 212.9375 221.6875 C212.0161879 221.14703033 212.0161879 221.14703033 211.07626343 220.59564209 C201.84578763 215.13285899 194.38812387 209.74758809 188 201 C186.67022772 199.35128814 185.33697783 197.70537414 184 196.0625 C183.3709375 195.25941406 182.741875 194.45632812 182.09375 193.62890625 C179.62565555 190.52997423 177.07010896 187.51436315 174.5 184.5 C170.60892068 179.93102999 166.82070008 175.29826075 163.09375 170.59375 C160.61188959 167.51920651 158.06151487 164.50820956 155.5 161.5 C151.60924384 156.93074686 147.82071079 152.29827428 144.09375 147.59375 C141.61188959 144.51920651 139.06151487 141.50820956 136.5 138.5 C132.60924384 133.93074686 128.82071079 129.29827428 125.09375 124.59375 C122.61188959 121.51920651 120.06151487 118.50820956 117.5 115.5 C113.60501291 110.92577811 109.81226485 106.2883996 106.08203125 101.578125 C103.66915908 98.59032832 101.18203921 95.66943803 98.6875 92.75 C94.88255834 88.2936082 91.21201588 83.75828313 87.625 79.125 C83.15203548 73.35489192 78.44498129 67.82782751 73.63647461 62.33569336 C69.97450363 58.14674109 66.42153629 53.89486185 62.98364258 49.51855469 C60.92479282 46.90451233 58.84949807 44.30429551 56.76953125 41.70703125 C56.06030518 40.82120361 55.3510791 39.93537598 54.62036133 39.02270508 C53.81828247 38.02146606 53.81828247 38.02146606 53 37 C52.95430245 66.18972129 52.91894338 95.37944003 52.89786934 124.56918982 C52.89536815 128.0210615 52.89277948 131.47293311 52.89013672 134.92480469 C52.88934979 135.95554419 52.88934979 135.95554419 52.88854696 137.00710671 C52.87986178 148.11038558 52.86410228 159.21364358 52.84569441 170.3169101 C52.82694271 181.72332322 52.81602172 193.12971945 52.81182301 204.53614843 C52.80922151 210.93729342 52.80313046 217.3383912 52.78853989 223.73952103 C52.77490119 229.7722845 52.77079003 235.80498159 52.77378464 241.83775902 C52.77323728 244.04431075 52.76929751 246.25086485 52.76158905 248.45740318 C52.16773117 275.5063946 52.16773117 275.5063946 64 299 C72.5152675 305.67080523 82.61964342 306.6981731 93 308 C93.042721 309.66611905 93.04063832 311.33382885 93 313 C92 314 92 314 88.3870697 314.08229065 C86.73837817 314.06732444 85.08973333 314.04664168 83.44116211 314.02172852 C82.09495033 314.0073172 82.09495033 314.0073172 80.72154236 313.99261475 C77.74006609 313.9595003 74.75873073 313.9192157 71.77734375 313.87890625 C69.71611536 313.85461728 67.65488169 313.83077313 65.59364319 313.80735779 C60.1569112 313.7443951 54.72027229 313.67536319 49.28363037 313.60510254 C43.74056249 313.53452885 38.19742838 313.46964637 32.65429688 313.40429688 C21.76945848 313.27512758 10.88470988 313.13955184 0 313 C0 311.35 0 309.7 0 308 C1.79244141 307.76216797 1.79244141 307.76216797 3.62109375 307.51953125 C14.82020036 305.92150805 24.47022447 304.25086709 32 295 C41.23923077 279.4289887 40.32073078 261.72190493 40.38574219 244.25268555 C40.40156992 241.85983317 40.41810935 239.46698541 40.43530273 237.07414246 C40.48289683 229.93527445 40.51351963 222.79638659 40.53942287 215.65741345 C40.54686764 213.63871471 40.55481204 211.62001856 40.5629282 209.60132241 C40.61335671 197.03618988 40.65741324 184.47105198 40.68238449 171.90584087 C40.68824256 169.0074582 40.69416616 166.10907568 40.70019531 163.21069336 C40.70168741 162.49043336 40.70317952 161.77017336 40.70471683 161.0280873 C40.73007584 149.33607603 40.79662102 137.6446693 40.87979898 125.9529412 C40.96466625 113.92463513 41.01177508 101.8966393 41.02222562 89.86803466 C41.02904433 83.12370656 41.05244274 76.38032943 41.11843109 69.63629723 C41.17849701 63.30005292 41.19125266 56.96546786 41.16766357 50.62899971 C41.16722146 48.30536592 41.18388566 45.98165597 41.21897125 43.65828705 C41.86566448 31.69652626 41.86566448 31.69652626 37.8355484 20.89078712 C35.29169933 18.80483943 32.97327694 17.38159292 30 16 C28.66656119 15.18835379 27.33719037 14.36990158 26.015625 13.5390625 C24.76947082 12.88353348 23.51406856 12.24528157 22.25 11.625 C21.5796875 11.29048828 20.909375 10.95597656 20.21875 10.61132812 C13.64894137 7.51783741 7.25397936 6.45337371 0 6 C0 4.02 0 2.04 0 0 Z " fill="#3E3C3B" transform="translate(16,13)"/>
<path d="M0 0 C0.69064041 0.27872106 1.38128082 0.55744211 2.09284973 0.84460926 C4.0832868 1.63567004 6.08422637 2.40066464 8.0933075 3.14309978 C29.43922656 11.52369131 29.43922656 11.52369131 33.91559601 20.92241335 C37.62145146 32.18186016 36.36650739 45.01844572 35.90923309 56.67575479 C35.74586657 61.63676119 35.74716229 66.5978024 35.73095703 71.56108093 C35.67651538 80.94955869 35.48332962 90.32952174 35.23574829 99.71468848 C34.87936807 113.47444689 34.74103666 127.23679039 34.59327698 141.00008678 C34.57100879 143.03921827 34.54862508 145.0783485 34.52612305 147.11747742 C34.51531865 148.11372247 34.50451426 149.10996753 34.49338245 150.13640183 C34.42496336 156.02420287 34.31940652 161.90985262 34.17899609 167.79637015 C34.09305959 171.46453502 34.02236506 175.13291733 33.95338249 178.80143547 C33.91742863 180.49138666 33.87413704 182.18120164 33.82263374 183.87075043 C33.23980864 199.83233743 33.23980864 199.83233743 40.375 213.5625 C41.24125 214.036875 42.1075 214.51125 43 215 C43.969375 215.53625 44.93875 216.0725 45.9375 216.625 C60.61556536 223.2151518 78.17833064 222.45693726 94 223 C94.042721 224.66611905 94.04063832 226.33382885 94 228 C92.28882326 229.71117674 90.0611257 229.12610286 87.72338867 229.12698364 C86.00700699 229.13121338 86.00700699 229.13121338 84.25595093 229.13552856 C82.98941681 229.13350433 81.72288269 229.1314801 80.41796875 229.12939453 C79.07955884 229.13074856 77.7411493 229.13252851 76.40274048 229.13470459 C72.75821145 229.13927869 69.11371061 229.13748946 65.46918106 229.1343255 C61.66329113 229.13180178 57.85740369 229.13413947 54.05151367 229.13571167 C47.6590125 229.13753333 41.26652286 229.13512715 34.87402344 229.13037109 C27.47305597 229.12492848 20.07211605 229.12669114 12.67114925 229.1321975 C6.32806378 229.13672873 -0.01501337 229.13737913 -6.35809994 229.13475883 C-10.15146779 229.13319611 -13.94482267 229.13300215 -17.7381897 229.13629532 C-21.30366944 229.13917418 -24.86911351 229.13719807 -28.43458939 229.13140106 C-30.37504273 229.12943796 -32.31549907 229.13242725 -34.25595093 229.13552856 C-35.40020538 229.13270874 -36.54445984 229.12988892 -37.72338867 229.12698364 C-38.72407883 229.12660662 -39.72476898 229.12622959 -40.75578308 229.12584114 C-43 229 -43 229 -44 228 C-44.04063832 226.33382885 -44.042721 224.66611905 -44 223 C-42.93523437 222.96261719 -41.87046875 222.92523437 -40.7734375 222.88671875 C-23.64868449 222.26476304 -23.64868449 222.26476304 -8 216 C-7.34 216 -6.68 216 -6 216 C-0.96452904 203.79266768 -0.55547725 192.36846883 -0.56762695 179.37011719 C-0.55859647 177.40777474 -0.54826612 175.44543791 -0.53674316 173.48310852 C-0.50929811 168.18851829 -0.49990569 162.89403546 -0.49388909 157.59938335 C-0.48447277 152.05402607 -0.45826683 146.50874798 -0.43388367 140.96343994 C-0.3903044 130.47718746 -0.36170483 119.99095042 -0.33856028 109.5046351 C-0.31146257 97.56016098 -0.26755392 85.61576687 -0.22227156 73.67135 C-0.12954811 49.11427679 -0.05781115 24.55717848 0 0 Z " fill="#3F3D3C" transform="translate(293,343)"/>
<path d="M0 0 C4.67322464 -0.07559343 9.34607415 -0.12926247 14.01977539 -0.16479492 C15.60121883 -0.17964641 17.18262295 -0.19993305 18.76391602 -0.22631836 C46.65243144 -0.67914048 75.88205851 6.12784185 96.6875 25.73046875 C97.450625 26.47941406 98.21375 27.22835938 99 28 C99.639375 28.61488281 100.27875 29.22976563 100.9375 29.86328125 C110.52489976 39.85728949 114.32843541 52.78580957 117 66 C117.29003906 67.37865234 117.29003906 67.37865234 117.5859375 68.78515625 C119.34403222 82.43526905 118.69557961 96.75253921 115 110 C114.6596875 111.23878906 114.319375 112.47757812 113.96875 113.75390625 C109.5751429 128.22609181 102.65571948 139.30951471 92 150 C90.71996094 151.28777344 90.71996094 151.28777344 89.4140625 152.6015625 C88.61742187 153.39304687 87.82078125 154.18453125 87 155 C86.42378906 155.57363281 85.84757812 156.14726562 85.25390625 156.73828125 C63.83319911 176.67487473 33.20747407 183.19733946 4.9375 183.375 C4.26501221 183.38294586 3.59252441 183.39089172 2.8996582 183.39907837 C-5.04117578 183.47119945 -11.63067629 183.0510453 -19 180 C-18.67 178.02 -18.34 176.04 -18 174 C-17.40356689 174.06928711 -16.80713379 174.13857422 -16.19262695 174.20996094 C-1.87785986 175.7707135 13.18097913 176.56963638 27 172 C28.08410156 171.64808594 29.16820312 171.29617188 30.28515625 170.93359375 C49.78280935 164.02389914 63.23939851 151.07496839 72.5625 132.96484375 C76.05330174 125.24560062 77.6516994 117.31609181 79 109 C79.13277344 108.23429687 79.26554687 107.46859375 79.40234375 106.6796875 C82.89121324 82.30539381 78.14578596 56.2479191 63.8984375 36.015625 C52.397318 21.30394563 35.95746306 11.5247599 17.45703125 8.59765625 C10.71090688 7.49944996 5.5391662 5.04241278 0 1 C0 0.67 0 0.34 0 0 Z " fill="#3F3D3C" transform="translate(363,257)"/>
<path d="M0 0 C2.9719385 1.12451727 5.33440687 2.22293791 8 4 C6.39152288 8.98046531 3.46006922 12.72836209 0.375 16.875 C-4.87523448 24.03414035 -10.00765409 31.26408204 -15.0625 38.5625 C-19.72534547 45.28856611 -24.3968394 52.00714896 -29.125 58.6875 C-33.43572733 64.77844279 -37.72427997 70.88442821 -42 77 C-46.3190293 83.17686004 -50.6489828 89.34562937 -55 95.5 C-61.69916114 104.97727045 -68.34956634 114.48850191 -75 124 C-82.1340188 134.20312503 -89.27436914 144.40128359 -96.46142578 154.56713867 C-100.32373472 160.03352596 -104.16452068 165.51476211 -108 171 C-112.802487 177.86818555 -117.622866 184.72325165 -122.4609375 191.56640625 C-126.3233647 197.03306909 -130.16435255 202.51452166 -134 208 C-138.802487 214.86818555 -143.622866 221.72325165 -148.4609375 228.56640625 C-152.3233647 234.03306909 -156.16435255 239.51452166 -160 245 C-164.802487 251.86818555 -169.622866 258.72325165 -174.4609375 265.56640625 C-178.3233647 271.03306909 -182.16435255 276.51452166 -186 282 C-190.802487 288.86818555 -195.622866 295.72325165 -200.4609375 302.56640625 C-204.3233647 308.03306909 -208.16435255 313.51452166 -212 319 C-216.802487 325.86818555 -221.622866 332.72325165 -226.4609375 339.56640625 C-230.3233647 345.03306909 -234.16435255 350.51452166 -238 356 C-242.802487 362.86818555 -247.622866 369.72325165 -252.4609375 376.56640625 C-256.3233647 382.03306909 -260.16435255 387.51452166 -264 393 C-268.31906815 399.17683327 -272.6490074 405.34561154 -277 411.5 C-286.7408424 425.28140335 -296.41753844 439.10796578 -306 453 C-308.9719385 451.87548273 -311.33440687 450.77706209 -314 449 C-313.37679324 445.70352772 -312.20103678 443.55425571 -310.26171875 440.83203125 C-309.69517578 440.03023437 -309.12863281 439.2284375 -308.54492188 438.40234375 C-307.93197266 437.54769531 -307.31902344 436.69304687 -306.6875 435.8125 C-306.05521484 434.92046875 -305.42292969 434.0284375 -304.77148438 433.109375 C-303.47171427 431.2763993 -302.16945974 429.44518283 -300.86474609 427.61572266 C-298.71238281 424.59655269 -296.57330927 421.56821721 -294.43676758 418.5378418 C-293.47255865 417.17025438 -292.50754136 415.80323656 -291.54174805 414.43676758 C-287.67775183 408.96952223 -283.83643796 403.48660887 -280 398 C-275.197513 391.13181445 -270.377134 384.27674835 -265.5390625 377.43359375 C-261.6766353 371.96693091 -257.83564745 366.48547834 -254 361 C-249.197513 354.13181445 -244.377134 347.27674835 -239.5390625 340.43359375 C-235.6766353 334.96693091 -231.83564745 329.48547834 -228 324 C-223.197513 317.13181445 -218.377134 310.27674835 -213.5390625 303.43359375 C-209.6766353 297.96693091 -205.83564745 292.48547834 -202 287 C-197.197513 280.13181445 -192.377134 273.27674835 -187.5390625 266.43359375 C-183.6766353 260.96693091 -179.83564745 255.48547834 -176 250 C-171.197513 243.13181445 -166.377134 236.27674835 -161.5390625 229.43359375 C-157.6766353 223.96693091 -153.83564745 218.48547834 -150 213 C-145.197513 206.13181445 -140.377134 199.27674835 -135.5390625 192.43359375 C-131.6766353 186.96693091 -127.83564745 181.48547834 -124 176 C-119.197513 169.13181445 -114.377134 162.27674835 -109.5390625 155.43359375 C-105.6766353 149.96693091 -101.83564745 144.48547834 -98 139 C-93.197513 132.13181445 -88.377134 125.27674835 -83.5390625 118.43359375 C-79.6766353 112.96693091 -75.83564745 107.48547834 -72 102 C-67.197513 95.13181445 -62.377134 88.27674835 -57.5390625 81.43359375 C-53.6766353 75.96693091 -49.83564745 70.48547834 -46 65 C-41.197513 58.13181445 -36.377134 51.27674835 -31.5390625 44.43359375 C-27.67663491 38.96693036 -23.83574823 33.48540836 -20 28 C-15.40506706 21.43098549 -10.80458826 14.8659671 -6.1875 8.3125 C-5.67767578 7.58740234 -5.16785156 6.86230469 -4.64257812 6.11523438 C-1.11698055 1.11698055 -1.11698055 1.11698055 0 0 Z " fill="#41403F" transform="translate(404,84)"/>
<path d="M0 0 C7.05375 -0.061875 14.1075 -0.12375 21.375 -0.1875 C23.58106934 -0.21481201 25.78713867 -0.24212402 28.06005859 -0.27026367 C29.83951269 -0.27903841 31.61897288 -0.28668 33.3984375 -0.29296875 C34.29731689 -0.30831665 35.19619629 -0.32366455 36.12231445 -0.33947754 C46.37450427 -0.34364397 55.91715495 2.5476599 64 9 C70.51228313 16.62905895 72.48486517 23.55877466 72.30859375 33.4921875 C71.62038726 41.31509165 67.96921246 46.51478633 62.9765625 52.37109375 C60.49427066 54.41677694 58.07355371 55.13853917 55 56 C55.33209473 56.46784912 55.66418945 56.93569824 56.00634766 57.41772461 C73 81.37565036 73 81.37565036 73 83 C54.47365064 84.9591313 54.47365064 84.9591313 49.0703125 80.6796875 C47.06443849 77.5299014 45.47883257 74.42783745 44 71 C42.14719674 66.9733111 40.57328999 63.70395878 37 61 C31.05607892 59.50452352 25.1057952 59.9108643 19 60 C19 67.59 19 75.18 19 83 C12.73 83 6.46 83 0 83 C0 55.61 0 28.22 0 0 Z " fill="#99ACFF" transform="translate(977,113)"/>
<path d="M0 0 C16 0 16 0 19.80078125 2.5703125 C21.11328125 4.265625 21.11328125 4.265625 22.3125 6.125 C22.78429687 6.75664063 23.25609375 7.38828125 23.7421875 8.0390625 C24.71937461 9.35240198 25.67611928 10.68119921 26.61181641 12.02441406 C28.36403165 14.51806966 30.2391743 16.8972569 32.13500977 19.2824707 C33.04446596 20.42681417 33.94733577 21.57642339 34.84350586 22.73120117 C38.68011874 27.67368983 42.72264457 32.42075228 46.85351562 37.11914062 C50.20404809 40.95819639 53.00548475 44.80767865 56 49 C56.33 32.83 56.66 16.66 57 0 C63.27 0 69.54 0 76 0 C76 27.39 76 54.78 76 83 C60 83 60 83 55.6875 79.375 C54.42355806 77.60769388 53.19784579 75.81275636 52 74 C50.28656983 71.74180127 48.51392502 69.53135309 46.75 67.3125 C46.28827393 66.71896729 45.82654785 66.12543457 45.35083008 65.51391602 C41.54609934 60.62417359 37.56915907 55.90389934 33.49902344 51.23364258 C28.87205321 45.91262682 24.47550065 40.47005635 20 35 C19.67 50.84 19.34 66.68 19 83 C12.73 83 6.46 83 0 83 C0 55.61 0 28.22 0 0 Z " fill="#99ACFF" transform="translate(529,113)"/>
<path d="M0 0 C47.58823529 0 47.58823529 0 57 8 C62.66435568 14.05954329 65.57902791 19.38904767 65.5 27.75 C65.49427979 28.45302246 65.48855957 29.15604492 65.48266602 29.88037109 C65.23750963 37.07327604 63.17058179 42.4754928 58.3203125 47.8671875 C54.79106205 51.14546903 51.63699594 52.59129237 47 54 C51.7245688 61.70237801 56.82051475 69.08445587 62.08691406 76.42358398 C62.59319336 77.13200439 63.09947266 77.8404248 63.62109375 78.5703125 C64.0792749 79.20727051 64.53745605 79.84422852 65.00952148 80.50048828 C66 82 66 82 66 83 C62.81473859 83.66359613 60.17550311 83.77524019 57 83 C53.67365194 80.15433807 51.44007165 76.60861973 49 73 C48.09740902 71.75939621 47.18960665 70.52257158 46.27734375 69.2890625 C39 59.37986694 39 59.37986694 39 57 C29.1 57 19.2 57 9 57 C9 65.58 9 74.16 9 83 C6.03 83 3.06 83 0 83 C0 55.61 0 28.22 0 0 Z " fill="#434140" transform="translate(1240,287)"/>
<path d="M0 0 C47.70822943 0 47.70822943 0 57.85546875 8.56640625 C63.21871134 14.27395578 65.11625939 20.78090518 65.375 28.5 C65.10998742 36.40620861 63.12265038 42.64940084 57.6875 48.4921875 C54.71961491 51.14404779 51.10701253 54 47 54 C50.11456579 59.74583688 53.74500215 64.93477969 57.625 70.1875 C58.7865947 71.76230515 59.94555198 73.33905989 61.1015625 74.91796875 C61.86460693 75.95087036 61.86460693 75.95087036 62.64306641 77.00463867 C63.9601316 78.94137379 65.00612427 80.88216165 66 83 C62.54954731 83.49316644 59.43721025 83.65104504 56 83 C53.19828864 80.78579187 51.5640192 78.04532273 49.75 75 C48.30514075 72.74680057 46.85681909 70.49605704 45.40087891 68.25 C44 66 44 66 42.82958984 63.6875 C41.40721107 61.21667531 40.29970803 59.70413147 38 58 C33.05232714 56.88571382 28.16922202 56.92364585 23.125 57 C21.75518215 56.99190032 20.38538054 56.98021589 19.015625 56.96484375 C15.67714555 56.94133333 12.33838888 56.9659782 9 57 C9 65.58 9 74.16 9 83 C6.03 83 3.06 83 0 83 C0 55.61 0 28.22 0 0 Z " fill="#434140" transform="translate(769,287)"/>
<path d="M0 0 C6.6 0 13.2 0 20 0 C24.71924655 10.47617539 29.43495045 20.95392438 34.14558411 31.43397522 C36.66910089 37.04637444 39.19898203 42.65584377 41.73466492 48.26275635 C43.30559212 51.73855232 44.87235333 55.21621599 46.43826294 58.6942749 C47.18534088 60.35107269 47.93425158 62.00704533 48.68502808 63.66217041 C49.73360269 65.97448088 50.77571379 68.28960238 51.81640625 70.60546875 C52.12599274 71.28396378 52.43557922 71.9624588 52.75454712 72.66151428 C54.33385553 76.194755 55.22941041 79.14705206 56 83 C49.4 83 42.8 83 36 83 C33.69 77.39 31.38 71.78 29 66 C9.695 65.505 9.695 65.505 -10 65 C-10.33 66.65 -10.66 68.3 -11 70 C-12.56463942 74.37586042 -14.29632065 78.67527551 -16 83 C-22.6 83 -29.2 83 -36 83 C-33.9863525 76.95905751 -31.93222468 71.3098794 -29.296875 65.56640625 C-28.94178864 64.7824498 -28.58670227 63.99849335 -28.22085571 63.19078064 C-27.46087264 61.5138626 -26.69895348 59.83782084 -25.9352417 58.16259766 C-23.91392675 53.72838287 -21.9069776 49.28766843 -19.8984375 44.84765625 C-19.49053986 43.9469339 -19.08264221 43.04621155 -18.66238403 42.11819458 C-14.50918731 32.93739526 -10.43300077 23.72319464 -6.375 14.5 C-6.04786011 13.75686554 -5.72072021 13.01373108 -5.38366699 12.24807739 C-3.58700953 8.16630263 -1.79307797 4.08335161 0 0 Z " fill="#9AACFF" transform="translate(876,113)"/>
<path d="M0 0 C48.53222453 0 48.53222453 0 58 9 C63.82821883 16.78325426 65.76578984 23.37090188 65 33 C63.72168759 39.57572569 60.84739798 45.33590699 56 50 C45.38438497 57.11318422 34.34754367 57.28402471 21.9375 57.125 C20.58138685 57.11494631 19.22526645 57.1058247 17.86914062 57.09765625 C14.57934936 57.07424137 11.28965076 57.03837571 8 57 C8 65.58 8 74.16 8 83 C5.36 83 2.72 83 0 83 C0 55.61 0 28.22 0 0 Z " fill="#FBFBFB" transform="translate(533,287)"/>
<path d="M0 0 C23.1 0 46.2 0 70 0 C70 14.45939471 70 14.45939471 66.19116211 18.56079102 C65.65370361 19.07697998 65.11624512 19.59316895 64.5625 20.125 C63.44933721 21.30226737 62.33736805 22.48066446 61.2265625 23.66015625 C60.67516602 24.22492676 60.12376953 24.78969727 59.55566406 25.37158203 C57.37260257 27.65673899 55.40829986 30.09362526 53.4375 32.5625 C50.15424176 36.60709348 46.8134458 40.59548925 43.4375 44.5625 C39.49013615 49.20412383 35.62790221 53.90078464 31.8515625 58.68359375 C29.60896329 61.48920837 27.29938736 64.24073517 25 67 C40.18 67.33 55.36 67.66 71 68 C71 72.95 71 77.9 71 83 C47.24 83 23.48 83 -1 83 C-1 68.53992993 -1 68.53992993 2.453125 64.79492188 C2.94296875 64.32634766 3.4328125 63.85777344 3.9375 63.375 C4.95812679 62.29009209 5.97764285 61.20413827 6.99609375 60.1171875 C7.76155518 59.33166504 7.76155518 59.33166504 8.54248047 58.53027344 C10.66897561 56.29763164 12.57686452 53.90828218 14.5 51.5 C17.74013095 47.51613792 21.04103767 43.59246274 24.375 39.6875 C28.88522571 34.39934622 33.21572056 28.98708385 37.47216797 23.49291992 C39.23602132 21.21972029 40.96300871 19.03699129 43 17 C28.81 16.67 14.62 16.34 0 16 C0 10.72 0 5.44 0 0 Z " fill="#9AACFF" transform="translate(731,113)"/>
<path d="M0 0 C30.36 0 60.72 0 92 0 C92 1.98 92 3.96 92 6 C90.98421875 6.07476563 89.9684375 6.14953125 88.921875 6.2265625 C78.71671179 7.13722683 68.25501232 8.85284137 61 16.875 C60.34 17.90625 59.68 18.9375 59 20 C58.64679688 20.53753906 58.29359375 21.07507813 57.9296875 21.62890625 C49.55299671 35.99337971 51.52596015 55.03085854 51.48828125 70.93359375 C51.47302639 73.62502657 51.45339955 76.31642291 51.43388367 79.00782776 C51.39051674 85.32905256 51.36178811 91.6502522 51.33856028 97.97157961 C51.31134696 105.1786365 51.26744676 112.38556313 51.22227156 119.59252632 C51.12985328 134.3949402 51.05797849 149.1974101 51 164 C50.25255146 163.69996189 49.50510292 163.39992378 48.73500443 163.09079361 C47.17136332 162.46717132 45.59994928 161.86086103 44.00996017 161.30785751 C41.9454802 160.42078201 40.57320211 159.61735199 39 158 C37.94982684 154.43177862 38.08787475 150.93943476 38.16113281 147.24316406 C38.15517593 146.14662003 38.14921906 145.05007599 38.14308167 143.92030334 C38.13094468 140.28465105 38.16753956 136.65109672 38.203125 133.015625 C38.20135704 130.48133881 38.19607705 127.94705285 38.18743896 125.41278076 C38.1737096 119.40740876 38.18889259 113.40284384 38.2201097 107.39759517 C38.27847129 96.05280728 38.28035286 84.70813061 38.26424408 73.36321259 C38.26559641 69.65649106 38.28786824 65.95034143 38.31280518 62.24371338 C38.36683844 45.7862781 38.29723777 30.62152681 29.3125 16.3125 C21.24581484 8.24581484 10.83909901 7.03229514 0 6 C0 4.02 0 2.04 0 0 Z " fill="#42403F" transform="translate(259,13)"/>
<path d="M0 0 C1.23556641 0.01740234 1.23556641 0.01740234 2.49609375 0.03515625 C3.32238281 0.04417969 4.14867187 0.05320312 5 0.0625 C5.63808594 0.07410156 6.27617188 0.08570313 6.93359375 0.09765625 C24.97142931 38.9013709 24.97142931 38.9013709 33.47286987 57.49832153 C34.10694787 58.88388297 34.74259719 60.26872654 35.37991333 61.65280151 C38.62075587 68.6951968 41.67290303 75.66967247 43.93359375 83.09765625 C40.96359375 83.09765625 37.99359375 83.09765625 34.93359375 83.09765625 C33.42413495 79.99800222 31.92768708 76.89224222 30.43359375 73.78515625 C29.78970703 72.46354492 29.78970703 72.46354492 29.1328125 71.11523438 C28.72675781 70.26767578 28.32070313 69.42011719 27.90234375 68.546875 C27.52529297 67.76658936 27.14824219 66.98630371 26.75976562 66.18237305 C25.93359375 64.09765625 25.93359375 64.09765625 25.93359375 61.09765625 C10.42359375 61.42765625 -5.08640625 61.75765625 -21.06640625 62.09765625 C-24.03640625 68.69765625 -27.00640625 75.29765625 -30.06640625 82.09765625 C-31.06640625 83.09765625 -31.06640625 83.09765625 -33.1328125 83.1953125 C-36.59960938 83.14648438 -36.59960938 83.14648438 -40.06640625 83.09765625 C-36.21798143 73.6208961 -32.02772483 64.324538 -27.75390625 55.03515625 C-27.05832032 53.51978215 -26.36293021 52.00431815 -25.66772461 50.48876953 C-24.58420221 48.1267083 -23.5005379 45.76471355 -22.41609192 43.40307617 C-19.76494729 37.62793359 -17.12774052 31.84655006 -14.49609375 26.0625 C-13.39624705 23.64741702 -12.29623975 21.23240725 -11.19619751 18.81741333 C-10.485669 17.25643667 -9.77584833 15.69513761 -9.06674194 14.1335144 C-8.08037683 11.96177736 -7.0912804 9.79130442 -6.1015625 7.62109375 C-5.80752533 6.97176376 -5.51348816 6.32243378 -5.21054077 5.65342712 C-2.68452131 0.12686774 -2.68452131 0.12686774 0 0 Z " fill="#413F3E" transform="translate(675.06640625,286.90234375)"/>
<path d="M0 0 C8 0 8 0 9.87939453 1.29077148 C10.29302246 1.89477783 10.70665039 2.49878418 11.1328125 3.12109375 C11.62152832 3.80067139 12.11024414 4.48024902 12.61376953 5.18041992 C13.11247559 5.92525635 13.61118164 6.67009277 14.125 7.4375 C15.24669475 9.00757494 16.37180309 10.57521574 17.5 12.140625 C18.07363281 12.94822266 18.64726563 13.75582031 19.23828125 14.58789062 C22.0391284 18.4227534 25.07522776 22.04970388 28.125 25.6875 C33.74951871 32.45330379 39.23399835 39.3118942 44.63818359 46.25439453 C47.54049927 49.974645 50.46541893 53.67723129 53.38549805 57.38354492 C55.62567158 60.23196359 57.82534969 63.10046625 60 66 C60.33 44.22 60.66 22.44 61 0 C63.64 0 66.28 0 69 0 C69 27.39 69 54.78 69 83 C62 83 62 83 59.296875 80.6484375 C58.42610815 79.57461509 57.57821866 78.48197034 56.75 77.375 C56.28529297 76.79032959 55.82058594 76.20565918 55.34179688 75.60327148 C53.87507827 73.74988598 52.43808035 71.87565093 51 70 C50.08060261 68.83527954 49.15877222 67.672475 48.234375 66.51171875 C45.92835695 63.60892644 43.64580389 60.68870458 41.37060547 57.76171875 C39.10955112 54.85545438 36.83662332 51.95854306 34.5625 49.0625 C34.11422852 48.49128418 33.66595703 47.92006836 33.20410156 47.33154297 C29.27524004 42.33308035 25.30666701 37.36682715 21.32250977 32.41235352 C17.4955119 27.64611685 13.75434786 22.82701868 10 18 C9.67 39.45 9.34 60.9 9 83 C6.03 83 3.06 83 0 83 C0 55.61 0 28.22 0 0 Z " fill="#403E3D" transform="translate(993,287)"/>
<path d="M0 0 C18.81 0 37.62 0 57 0 C57 2.64 57 5.28 57 8 C41.16 8 25.32 8 9 8 C9 17.57 9 27.14 9 37 C23.19 37 37.38 37 52 37 C52 39.64 52 42.28 52 45 C37.81 45 23.62 45 9 45 C9 55.23 9 65.46 9 76 C25.5 76 42 76 59 76 C59 78.31 59 80.62 59 83 C39.53 83 20.06 83 0 83 C0 55.61 0 28.22 0 0 Z " fill="#434140" transform="translate(1125,287)"/>
<path d="M0 0 C4.929375 -0.0825 9.85875 -0.165 14.9375 -0.25 C16.47398193 -0.28641602 18.01046387 -0.32283203 19.59350586 -0.36035156 C28.23343005 -0.43016913 35.3523334 0.00906889 42.15625 5.8515625 C42.5996875 6.43679688 43.043125 7.02203125 43.5 7.625 C43.9640625 8.21539062 44.428125 8.80578125 44.90625 9.4140625 C48.43236773 14.52693322 47.46395347 21.04048496 47 27 C45.74687841 31.69741578 43.86021937 34.289384 40.125 37.375 C34.513074 40.29320152 29.96037455 41.2476064 23.6328125 41.1953125 C21.76713623 41.18781982 21.76713623 41.18781982 19.86376953 41.18017578 C18.29997559 41.16196777 16.73618164 41.14375977 15.125 41.125 C10.13375 41.08375 5.1425 41.0425 0 41 C0 27.47 0 13.94 0 0 Z " fill="#FEFEFE" transform="translate(1249,295)"/>
<path d="M0 0 C4.90875 -0.103125 9.8175 -0.20625 14.875 -0.3125 C16.40237793 -0.35802002 17.92975586 -0.40354004 19.50341797 -0.45043945 C27.65739019 -0.53296954 34.15193104 0.12709416 41 5 C45.58951452 9.58951452 47.29411827 14.37719065 47.4375 20.8125 C47.31361638 26.74433923 46.15806819 30.70266637 42 35 C36.11768538 39.57767674 31.40380251 41.12817879 23.92578125 41.09765625 C22.67450439 41.09515869 21.42322754 41.09266113 20.1340332 41.09008789 C17.74737427 41.07643188 17.74737427 41.07643188 15.3125 41.0625 C10.259375 41.041875 5.20625 41.02125 0 41 C0 27.47 0 13.94 0 0 Z " fill="#FEFEFE" transform="translate(778,295)"/>
<path d="M0 0 C48.53222453 0 48.53222453 0 58 9 C63.82821883 16.78325426 65.76578984 23.37090188 65 33 C63.72168759 39.57572569 60.84739798 45.33590699 56 50 C45.38438497 57.11318422 34.34754367 57.28402471 21.9375 57.125 C20.58138685 57.11494631 19.22526645 57.1058247 17.86914062 57.09765625 C14.57934936 57.07424137 11.28965076 57.03837571 8 57 C8 65.58 8 74.16 8 83 C5.36 83 2.72 83 0 83 C0 55.61 0 28.22 0 0 Z M8 8 C8 21.53 8 35.06 8 49 C15.363125 49.12375 15.363125 49.12375 22.875 49.25 C24.40237793 49.28641602 25.92975586 49.32283203 27.50341797 49.36035156 C35.78104694 49.4273769 44.03780499 49.28472434 50.63623047 43.5871582 C55.47747116 38.17477938 56.45826128 32.80615793 56.31640625 25.7890625 C55.69690481 20.32827205 53.53435974 16.53435974 49.6875 12.6875 C43.74446234 8.95582519 39.35848367 7.62218694 32.31640625 7.70703125 C30.39356812 7.71827026 30.39356812 7.71827026 28.43188477 7.72973633 C26.82498779 7.75704834 25.21809082 7.78436035 23.5625 7.8125 C15.8590625 7.9053125 15.8590625 7.9053125 8 8 Z " fill="#413F3E" transform="translate(533,287)"/>
<path d="M0 0 C6.6 0 13.2 0 20 0 C20 27.72 20 55.44 20 84 C13.4 84 6.8 84 0 84 C0 56.28 0 28.56 0 0 Z " fill="#99ACFF" transform="translate(660,113)"/>
<path d="M0 0 C-0.875 4.75 -0.875 4.75 -2 7 C-5.86330927 6.39635793 -9.24457404 5.1952468 -12.83984375 3.71875 C-20.31577844 1.23127806 -30.6269787 0.28866684 -38.0625 3.25 C-41.57012405 5.33964837 -44.15794191 7.31588383 -46 11 C-46.62043263 16.00777762 -46.89642645 19.76082226 -43.875 23.9375 C-38.00576376 28.14803904 -32.30518122 29.7725322 -25.375 31.3125 C-15.01389768 33.77332075 -3.98364762 36.4261638 2 46 C4.44237523 51.34996478 5.19020078 56.73940345 3.16015625 62.30078125 C-0.20288557 69.03818826 -4.9604581 72.98022905 -11.625 76.3125 C-23.85018277 79.8513687 -37.38759084 79.10946003 -49 74 C-52.16617659 72.19201615 -55.11927625 70.23311918 -58 68 C-57.39816251 65.97954558 -56.72693904 63.97888961 -56 62 C-55.01 61.505 -55.01 61.505 -54 61 C-52.40625 61.890625 -52.40625 61.890625 -50.5 63.25 C-40.25074595 69.80879181 -28.14720505 70.59081827 -16.3046875 68.53125 C-11.30293448 66.93373192 -8.63569691 64.36537301 -6 60 C-5.21779467 56.16418539 -5.52830186 52.97729958 -7.25 49.41015625 C-12.08450034 42.75192698 -21.97017234 41.39604674 -29.5625 39.5 C-39.79217761 36.93137149 -49.00019203 34.3428744 -55 25 C-56.8270828 19.51875161 -57.1132125 13.13676233 -55.1640625 7.64453125 C-51.3230886 0.98082822 -45.46381949 -3.38547963 -38.25 -5.875 C-25.23421042 -9.21340099 -11.55329631 -6.56952143 0 0 Z " fill="#444241" transform="translate(1412,293)"/>
<path d="M0 0 C22.44 0 44.88 0 68 0 C68 2.64 68 5.28 68 8 C58.1 8 48.2 8 38 8 C38 32.75 38 57.5 38 83 C35.03 83 32.06 83 29 83 C29 58.25 29 33.5 29 8 C19.43 8 9.86 8 0 8 C0 5.36 0 2.72 0 0 Z " fill="#464443" transform="translate(876,287)"/>
<path d="M0 0 C0.66 0 1.32 0 2 0 C4.71113316 5.94244693 7.41644818 11.88751651 10.11767578 17.83447266 C11.03787639 19.85852394 11.95942232 21.88196414 12.88232422 23.90478516 C14.20631859 26.80733351 15.52550736 29.71202325 16.84375 32.6171875 C17.46715271 33.97975174 17.46715271 33.97975174 18.10314941 35.36984253 C18.4835437 36.21056305 18.86393799 37.05128357 19.25585938 37.91748047 C19.59339233 38.65916473 19.93092529 39.400849 20.27868652 40.16500854 C21 42 21 42 21 44 C7.8 44 -5.4 44 -19 44 C-12.71887595 29.3102744 -6.38447608 14.64508325 0 0 Z " fill="#FAFAFA" transform="translate(676,297)"/>
<path d="M0 0 C3.67125 -0.061875 7.3425 -0.12375 11.125 -0.1875 C12.84420654 -0.22846802 12.84420654 -0.22846802 14.59814453 -0.27026367 C21.51685272 -0.32667607 25.89068481 0.4634534 31.375 4.9375 C33.9097463 9.71452187 33.78178376 14.70359108 33 20 C31.25900329 24.44847828 28.61126824 26.35020003 24.3984375 28.26757812 C19.82164444 29.66521444 15.23806946 29.410396 10.5 29.25 C7.035 29.1675 3.57 29.085 0 29 C0 19.43 0 9.86 0 0 Z " fill="#FCFDFF" transform="translate(996,129)"/>
<path d="M0 0 C2.6875 2.125 2.6875 2.125 4 5 C4.1875 7.9375 4.1875 7.9375 3 11 C0.84664833 13.25512699 -1.53053028 15.10654978 -4 17 C-4.66 17.66 -5.32 18.32 -6 19 C-3.69 21.97 -1.38 24.94 1 28 C1.8971875 26.515 1.8971875 26.515 2.8125 25 C3.534375 24.01 4.25625 23.02 5 22 C5.99 22 6.98 22 8 22 C7.45276317 25.37462715 6.9451 27.08235 5 30 C5.34641839 33.46418389 6.03286587 35.04929881 8 38 C6.68 38.66 5.36 39.32 4 40 C2.68 38.68 1.36 37.36 0 36 C-1.134375 36.66 -2.26875 37.32 -3.4375 38 C-8.02686736 40.28249952 -11.94274778 40.78522955 -17 40 C-21.06662662 38.44728802 -22.57519602 37.63720598 -25 34 C-25.44324642 30.0107822 -25.47232329 27.78115005 -23.375 24.3125 C-16.89189189 18 -16.89189189 18 -13 18 C-13.495 17.13375 -13.99 16.2675 -14.5 15.375 C-16.09822626 11.77899092 -16.57655777 9.87117359 -16 6 C-11.72916502 -0.40625248 -7.40099124 -1.04877171 0 0 Z " fill="#4C4A49" transform="translate(630,229)"/>
<path d="M0 0 C0.66 0 1.32 0 2 0 C3.71348735 4.09155867 5.42236208 8.18500311 7.12695312 12.28027344 C7.7077131 13.67370761 8.28973926 15.06661475 8.87304688 16.45898438 C9.71035383 18.45826832 10.54311689 20.45939176 11.375 22.4609375 C12.12910156 24.26763916 12.12910156 24.26763916 12.8984375 26.11083984 C14 29 14 29 14 31 C5.42 31 -3.16 31 -12 31 C-8.625 20.875 -8.625 20.875 -6.73828125 16.30859375 C-6.34189453 15.34501953 -5.94550781 14.38144531 -5.53710938 13.38867188 C-5.13298828 12.41478516 -4.72886719 11.44089844 -4.3125 10.4375 C-3.89677734 9.42880859 -3.48105469 8.42011719 -3.05273438 7.38085938 C-2.03784021 4.9194494 -1.02021747 2.45920717 0 0 Z " fill="#FBFCFF" transform="translate(885,133)"/>
<path d="M0 0 C3.54957284 1.18319095 4.45618788 2.41679917 6.75 5.3125 C7.38421875 6.09238281 8.0184375 6.87226563 8.671875 7.67578125 C10 10 10 10 9.953125 12.16796875 C8.66398718 14.6458607 7.63384083 15.10854618 5 16 C2.30859375 16.3359375 2.30859375 16.3359375 -0.5625 16.375 C-1.51253906 16.40335937 -2.46257813 16.43171875 -3.44140625 16.4609375 C-6 16 -6 16 -7.828125 14.15625 C-9 12 -9 12 -9.1875 9.125 C-7.48581993 4.64689457 -4.26083706 2.13041853 0 0 Z " fill="#F9F9F9" transform="translate(618,249)"/>
<path d="M0 0 C2 2 2 2 2.4375 4.375 C2 7 2 7 -0.1875 9.25 C-2.92813365 10.95528316 -4.82426667 11.63705905 -8 12 C-10.31282587 8.53076119 -10.42478586 7.07794425 -10 3 C-7.71933282 -1.02470679 -4.21240995 -0.38294636 0 0 Z " fill="#F9F9F9" transform="translate(628,232)"/>
</svg>
